<svg xmlns="http://www.w3.org/2000/svg" viewBox="0 0 218.49999999999997 416.29999999999995" height="416.29999999999995" width="218.49999999999997" style="width: 218.5px; height: 416.3px; position: absolute; top: 50%; left: 50%; transform: translate(-50%, -50%) scale(0.349748); z-index: 0; cursor: pointer;"><defs id="SvgjsDefs1329"/><g id="SvgjsG1330" featurekey="rootContainer" transform="matrix(1.149999976158142,0,0,1.149999976158142,-5.75,0)" fill="#ff8264"><path xmlns="http://www.w3.org/2000/svg" fill-rule="evenodd" d="M5,65 L100,0 L195, 65 L100, 10 z M5,282 L100,362 L195,277 L100, 352 z"/></g><g id="SvgjsG1331" featurekey="symbolFeature-0" transform="matrix(1.0440000295639038,0,0,1.0440000295639038,57.10124820709228,104)" fill="#ffaa64"><path xmlns="http://www.w3.org/2000/svg" d="M50.171,6.288c11.637,8.013,30.191,11.898,38.101,13.26c0.301,2.772,0.455,5.527,0.455,8.223  c0,27.634-14.728,52.93-38.612,66.642C26.229,80.697,11.5,55.402,11.5,27.771c0-2.669,0.154-5.403,0.455-8.17  C20.031,18.318,38.946,14.568,50.171,6.288 M50.039,0C38.216,11.699,7.588,15.281,7.588,15.281c-0.628,4.078-0.98,8.24-0.98,12.49  c0,31.327,17.64,58.512,43.506,72.229c25.87-13.718,43.504-40.902,43.504-72.229c0-4.25-0.346-8.412-0.973-12.49  C92.646,15.281,62.822,11.34,50.039,0L50.039,0z"/><path xmlns="http://www.w3.org/2000/svg" d="M20.738,26.015c-0.435,2.824-0.677,5.702-0.677,8.638c0,21.633,12.19,40.407,30.053,49.882  c17.864-9.476,30.052-28.249,30.052-49.882c0-2.936-0.247-5.814-0.674-8.638c0,0-20.602-2.719-29.432-10.551  C41.892,23.542,20.738,26.015,20.738,26.015z"/></g><g id="SvgjsG1332" featurekey="nameFeature-0" transform="matrix(2.00787091255188,0,0,2.00787091255188,9,218.35122343904862)" fill="#ff8264"><path d="M9.28 33.44 l0.16 -22.16 l3.84 0 l-0.24 28.88 l-5.96 0 l-3.24 -22.36 l0 22.36 l-3.84 0 l0 -28.88 l6.2 0 z M22.708 40.04 c-3 0 -5.4 -2.44 -5.4 -5.4 l0 -17.96 c0 -2.96 2.4 -5.36 5.4 -5.36 c2.96 0 5.36 2.4 5.36 5.36 l0 17.96 c0 2.96 -2.4 5.4 -5.36 5.4 z M22.708 15.120000000000001 c-0.88 0 -1.56 0.72 -1.56 1.56 l0 17.96 c0 0.88 0.68 1.56 1.56 1.56 c0.84 0 1.56 -0.68 1.56 -1.56 l0 -17.96 c0 -0.84 -0.72 -1.56 -1.56 -1.56 z M41.85600000000001 11.440000000000001 l-3.8 14.32 l3.76 14.24 l-3.4 0 l-2.08 -7.84 l-2.04 7.84 l-3.4 0 l3.76 -14.24 l-3.8 -14.32 l3.4 0 l2.08 7.88 l2.12 -7.88 l3.4 0 z M63.87200000000001 40 l-3.96 0 l-4 -28.56 l3.84 0 l2.08 14.72 l1.92 -14.72 l3.84 0 z M75.42 34 l0 5.96 l-3.8 0 l0 -28.52 l5.92 0 c2.64 0 4.76 2.16 4.76 4.8 l0 13 c0 2.64 -2.12 4.76 -4.76 4.76 l-2.12 0 z M75.42 15.239999999999998 l0 14.96 l2.12 0 c0.56 0 0.96 -0.4 0.96 -0.96 l0 -13 c0 -0.56 -0.4 -1 -0.96 -1 l-2.12 0 z M95.608 33.44 l0.16 -22.16 l3.84 0 l-0.24 28.88 l-5.96 0 l-3.24 -22.36 l0 22.36 l-3.84 0 l0 -28.88 l6.2 0 z"/></g></svg>