<svg width="752pt" height="752pt" version="1.1" viewBox="0 0 752 752" xmlns="http://www.w3.org/2000/svg">
 <g>
  <path d="m237.02 482.03h-6.6758c-5.3125 0-9.4727-3.4531-9.4727-7.8633 0-3.7969 3.0039-7.7148 5.793-9.7422l12.34-8.957h-3.9219c-7.832 0-14.207-6.0625-14.207-13.516v-158.48c0-7.4453 6.375-13.5 14.207-13.5h298.36c7.832 0 14.207 6.0586 14.207 13.5v158.49c0 7.4453-6.375 13.508-14.207 13.508h-3.9258l12.336 8.957c2.7891 2.0039 5.8008 5.9062 5.8008 9.7305 0 4.4102-4.1641 7.8555-9.4727 7.8555h-6.6758c-3.6992 0-8.4922-1.6367-11.398-3.8867l-29.43-22.672h-74.82l-4.3203 4.0078c-1.8867 1.7539-5.2148 2.9727-8.0938 2.9727h-38.375c-2.875 0-6.1992-1.2188-8.0859-2.9609l-4.3242-4.0117-74.805 0.003906-29.453 22.695c-2.9258 2.2383-7.7109 3.8711-11.375 3.8711zm-1.9375-207.32c-5.2227 0-9.4727 3.9336-9.4727 8.7656v158.48c0 4.8398 4.2461 8.7812 9.4727 8.7812h11.219c1.0273 0 1.9375 0.66406 2.2539 1.6367 0.31641 0.97656-0.03125 2.0469-0.86328 2.6484l-18.246 13.238c-2.1133 1.5391-3.8359 4.1914-3.8359 5.9102 0 1.7227 2.125 3.125 4.7344 3.125h6.6758c2.6445 0 6.375-1.2734 8.4883-2.8984l30.09-23.188c0.41016-0.31641 0.92188-0.49219 1.4453-0.49219h76.543c0.59766 0 1.1758 0.22656 1.6094 0.63281l5 4.6367c1.0117 0.93359 3.1953 1.6953 4.8672 1.6953h38.375c1.6992 0 3.8438-0.75 4.875-1.7031l5-4.6367c0.4375-0.40625 1.0117-0.63281 1.6094-0.63281h76.555c0.51953 0 1.0312 0.17187 1.4453 0.49219l30.078 23.168c2.0703 1.6055 5.8789 2.9023 8.5039 2.9023h6.6758c2.6133 0 4.7344-1.4023 4.7344-3.1211 0-1.7305-1.7188-4.375-3.8398-5.8906l-18.25-13.246c-0.82812-0.60156-1.1758-1.6719-0.86328-2.6484 0.31641-0.97656 1.2266-1.6367 2.2539-1.6367h11.219c5.2227 0 9.4727-3.9336 9.4727-8.7695l0.007812-158.49c0-4.8359-4.2461-8.7656-9.4727-8.7656z"/>
  <path d="m374.84 324.93c0 3.3281-4.9922 3.3281-4.9922 0 0-3.3281 4.9922-3.3281 4.9922 0"/>
  <path d="m398.66 324.93c0 3.3281-4.9922 3.3281-4.9922 0 0-3.3281 4.9922-3.3281 4.9922 0"/>
  <path d="m521.6 284.07h-274.68c-3.5039 0-6.3555 2.5508-6.3555 5.6953v145.92c0 3.1367 2.8516 5.6875 6.3555 5.6875h274.68c3.4961 0 6.3516-2.5508 6.3516-5.6875v-145.92c0-3.1445-2.8555-5.7031-6.3516-5.6953zm-167.61 26.469c-0.39844-0.6875-0.15625-1.5742 0.53516-1.9688 0.6875-0.39844 1.5742-0.15625 1.9688 0.53516l5.1016 8.918c5.6797-5.5469 13.73-9.0078 22.66-9.0078 8.9219 0 16.969 3.4531 22.633 8.9922l5.0977-8.9023c0.38672-0.69141 1.2852-0.93359 1.9688-0.53516 0.6875 0.39844 0.92969 1.2852 0.53125 1.9688l-5.5469 9.6953c4.043 4.8398 6.4453 10.902 6.4531 17.484l-62.281-0.003906c0-6.5742 2.3945-12.637 6.4297-17.469zm-5.6953 41.281v31.129h-0.019531c-0.28125 3.3359-3.293 5.9727-6.9844 5.9727-3.6953 0-6.7109-2.6367-6.9844-5.9727h-0.023437v-31.129h0.007812c-0.007812-0.11719-0.007812-0.24219-0.007812-0.35547 0-3.5664 3.1367-6.4531 7.0039-6.4531 3.8711 0 7.0039 2.8906 7.0039 6.4531 0 0.11719-0.003906 0.23828-0.007812 0.35547zm67.449 36.211c0 0.12891-0.03125 0.25-0.082031 0.35938 0.050781 0.30469 0.082031 0.62891 0.082031 0.94141 0 3.207-2.5234 5.8516-5.8203 6.3711v0.097656h-2.7227v19.176h-0.023437c-0.28516 3.3398-3.3047 5.9766-7 5.9766-3.6836 0-6.707-2.6367-6.9805-5.9766h-0.023437v-19.176h-17.84v19.176h-0.023437c-0.26953 3.3398-3.2969 5.9688-6.9805 5.9688-3.6953 0-6.7109-2.6289-6.9844-5.9688h-0.023438v-19.176h-2.75v-0.097656c-3.3047-0.53125-5.8164-3.168-5.8164-6.3633 0-0.3125 0.027344-0.64063 0.074219-0.94141-0.046875-0.10938-0.074219-0.23047-0.074219-0.35938v-46.469c0-0.48828 0.39844-0.89062 0.89062-0.89062h61.199c0.49219 0 0.89062 0.39844 0.89062 0.89062h0.007812zm18.512-5.0977h-0.023438c-0.28906 3.3359-3.293 5.9688-6.9961 5.9688-3.6875 0-6.7148-2.6328-6.9844-5.9688h-0.023438v-31.129h0.015625c-0.007812-0.11719-0.015625-0.24219-0.015625-0.35938 0-3.5625 3.1367-6.4492 7.0039-6.4492 3.8633 0 7.0039 2.8906 7.0039 6.4492 0 0.125-0.003907 0.24219 0 0.35938h0.019531z"/>
 </g>
</svg>